<svg width="500" height="500" viewBox="0 0 500 500" fill="none" xmlns="http://www.w3.org/2000/svg">
<path d="M321.348 131.229C321.354 156.771 321.775 181.274 321.162 205.75C320.914 215.667 323.564 219.057 333.603 218.939C379.46 218.396 425.327 218.636 471.19 218.605C486.121 218.594 485.753 218.766 486.585 234.511C490.533 309.196 466.308 372.697 414.383 424.508C376.912 461.897 331.576 483.548 279.742 490.64C272.058 491.691 269.372 488.74 269.42 480.956C269.673 440.02 269.75 399.082 269.63 358.146C269.606 350.069 272.613 346.78 280.517 347.084C291.033 347.488 301.584 347.407 312.105 347.06C319.237 346.825 321.612 349.945 321.493 357.069C321.184 375.608 321.343 394.156 321.395 412.7C321.405 416.069 320.756 419.602 322.427 422.779C374.179 409.769 435.833 325.349 432.785 272.028C429.116 269.5 424.915 270.618 420.957 270.611C375.094 270.531 329.231 270.58 283.367 270.577C269.525 270.576 269.49 270.551 269.493 256.921C269.513 178.545 269.53 100.17 269.603 21.7949C269.616 7.28916 270.085 6.72318 284.15 9.01172C345.691 19.0257 396.874 47.9091 436.517 97.8927C441.54 104.227 442.6 108.687 435.124 113.888C424.458 121.308 414.336 129.555 402.725 138.407C381.269 110.666 355.957 88.3169 321.348 74.0732C321.348 94.2052 321.348 112.192 321.348 131.229Z" fill="#4DA6FF"/>
<path d="M100.338 438.093C36.4243 383.01 6.51414 312.706 12.8265 228.353C21.3477 114.482 103.621 33.8501 195.644 13.1089C204.554 11.1006 213.691 10.1535 222.725 8.73408C228.678 7.79885 231.496 10.0745 231.472 16.657C231.324 57.5833 231.329 98.5104 231.403 139.437C231.415 146.139 228.586 148.804 222.122 148.64C211.26 148.363 200.376 148.259 189.522 148.674C181.797 148.97 179.508 145.446 179.64 137.989C179.949 120.505 179.751 103.011 179.695 85.521C179.684 82.1353 179.385 78.7504 179.211 75.1956C131.757 88.5484 65.535 153.937 63.795 241.911C62.2085 322.125 115.444 408.014 178.297 423.368C180.871 418.642 179.784 413.336 179.825 408.322C179.959 391.533 180.113 374.733 179.677 357.954C179.461 349.633 182.683 346.733 190.495 347.048C201.008 347.472 211.551 347.288 222.077 347.127C228.263 347.032 231.548 349.267 231.533 356.213C231.441 398.189 231.405 440.166 231.639 482.141C231.696 492.288 225.559 491.393 219.293 490.477C175.34 484.059 135.544 467.528 100.338 438.093Z" fill="#4DA6FF"/>
</svg>
